# File generated by ImageToStl.com - Free Image and 3D model conversion tools

mtllib minecraft_-_bat.mtl

o obj1
v -2.99999997 -4.61475517 -7.64817892
v -2.99999997 5.2150688 -0.76526151
v 3.00000003 5.2150688 -0.76526151
v 3.00000003 -4.61475517 -7.64817892
v -2.99999997 -8.05621387 -2.73326693
v 3.00000003 -8.05621387 -2.73326693
v 3.00000003 1.7736101 4.14965047
v -2.99999997 1.7736101 4.14965047
v -2.99999997 -4.61475517 -7.64817892
v 3.00000003 -4.61475517 -7.64817892
v 3.00000003 -8.05621387 -2.73326693
v -2.99999997 -8.05621387 -2.73326693
v 3.00000003 5.2150688 -0.76526151
v -2.99999997 5.2150688 -0.76526151
v -2.99999997 5.2150688 -0.76526151
v -2.99999997 -4.61475517 -7.64817892
v -2.99999997 -8.05621387 -2.73326693
v -2.99999997 1.7736101 4.14965047
v -12.99999997 -8.18852068 -6.12426675
v -2.99999997 -8.18852068 -6.12426675
v -2.99999997 5.66788495 1.8757343
v -12.99999997 5.66788495 1.8757343
v -22.99999997 -4.72441913 -4.12426669
v -12.99999997 -4.72441913 -4.12426669
v -12.99999997 4.80185996 1.37573434
v -22.99999997 4.80185996 1.37573434
v 3.00000003 5.66788495 1.8757343
v 3.00000003 -8.18852068 -6.12426675
v 13.00000003 -8.18852068 -6.12426675
v 13.00000003 5.66788495 1.8757343
v 13.00000003 4.80185996 1.37573434
v 13.00000003 -4.72441913 -4.12426669
v 23.00000003 -4.72441913 -4.12426669
v 23.00000003 4.80185996 1.37573434
v -2.99999997 3.63917621 1.64880094
v -2.99999997 9.63917635 1.6488023
v 3.00000003 9.63917635 1.6488023
v 3.00000003 3.63917621 1.64880094
v -2.99999997 3.63917502 7.64880061
v 3.00000003 3.63917502 7.64880061
v 3.00000003 9.63917509 7.64880208
v -2.99999997 9.63917509 7.64880208
v -2.99999997 3.63917621 1.64880094
v 3.00000003 3.63917621 1.64880094
v 3.00000003 3.63917502 7.64880061
v -2.99999997 3.63917502 7.64880061
v 3.00000003 9.63917635 1.6488023
v -2.99999997 9.63917635 1.6488023
v -2.99999997 9.63917635 1.6488023
v -2.99999997 3.63917621 1.64880094
v -2.99999997 3.63917502 7.64880061
v -3.99999997 8.63917579 5.64880149
v -3.99999997 12.63917489 5.6488016
v -0.99999997 12.63917489 5.6488016
v -0.99999997 8.63917579 5.64880149
v -3.99999997 8.63917533 6.64880125
v -0.99999997 8.63917533 6.64880125
v -0.99999997 12.63917443 6.64880137
v -3.99999997 12.63917443 6.64880137
v -3.99999997 8.63917579 5.64880149
v -0.99999997 8.63917579 5.64880149
v -0.99999997 8.63917533 6.64880125
v -3.99999997 8.63917533 6.64880125
v -0.99999997 12.63917489 5.6488016
v -3.99999997 12.63917489 5.6488016
v -3.99999997 12.63917489 5.6488016
v -3.99999997 8.63917579 5.64880149
v 4.00000003 8.63917579 5.64880149
v 1.00000003 8.63917579 5.64880149
v 1.00000003 12.63917489 5.6488016
v 4.00000003 12.63917489 5.6488016
v 4.00000003 8.63917533 6.64880125
v 4.00000003 12.63917443 6.64880137
v 1.00000003 12.63917443 6.64880137
v 1.00000003 8.63917533 6.64880125
v 4.00000003 8.63917579 5.64880149
v 4.00000003 8.63917533 6.64880125
v 1.00000003 8.63917533 6.64880125
v 1.00000003 8.63917579 5.64880149
v 1.00000003 12.63917489 5.6488016
v 4.00000003 12.63917489 5.6488016
v 4.00000003 12.63917489 5.6488016
v 4.00000003 8.63917579 5.64880149
v 3.00000003 -5.18833125 -6.82902578
v 3.00000003 -10.10324324 -10.27048449
v -2.99999997 -10.10324324 -10.27048449
v -2.99999997 -5.18833125 -6.82902578
vn 0 0 -1
vn 0 0 1
vn 0 -1 0
vn 1 0 0
vn 0 1 0
vn -1 0 0
vn 0 0.08716 0.99619
vn 0 0.08716 0.99619
vn 0 -0.57358 -0.81915
vn 0 0.57358 0.81915
vn 0 -0.81915 0.57358
vn 0 0.81915 -0.57358
vn 0 -0.57358 -0.81915
vn 0 0.57358 0.81915
vn 0 -0.81915 0.57358
vn 0 0.81915 -0.57358
vn 0 -0.81915 0.57358
vt 0.375 0.53123
vt 0.375 0.34381
vt 0.28124 0.34381
vt 0.28124 0.53123
vt 0.09383 0.53123
vt 0.1875 0.53123
vt 0.1875 0.34381
vt 0.09383 0.34381
vt 0.1875 0.2502
vt 0.28124 0.2502
vt 0.09383 0.2502
vt 0 0.34381
vt 0 0.53123
vt 0.09383 0.53123
vt 0.09383 0.34381
vt 0.67205 0.26557
vt 0.82794 0.26557
vt 0.82794 0.01562
vt 0.67205 0.01562
vt 0.39079 0.4375
vt 0.51564 0.4375
vt 0.51564 0.26565
vt 0.39079 0.26565
vt 0.375 0.1875
vt 0.375 0.09381
vt 0.28123 0.09381
vt 0.28123 0.1875
vt 0.0938 0.1875
vt 0.1875 0.1875
vt 0.1875 0.09381
vt 0.0938 0.09381
vt 0.1875 0
vt 0.28123 0
vt 0.0938 0
vt 0 0.09381
vt 0 0.1875
vt 0.0938 0.1875
vt 0.5 0.075
vt 0.5 0.01564
vt 0.4531 0.01564
vt 0.4531 0.075
vt 0.39072 0.075
vt 0.4375 0.075
vt 0.4375 0.01564
vt 0.39072 0.01564
vt 0.4375 0
vt 0.4875 0
vt 0.4875 0.01564
vt 0.39072 0
vt 0.375 0.01564
vt 0.375 0.075
vt 0.04688 0.54692
vt 0.04688 0.64061
vt 0.14055 0.64061
vt 0.14055 0.54692
usemtl mat0
f 1/1/1 2/2/1 3/3/1
f 1/1/1 3/3/1 4/4/1
f 5/5/2 6/6/2 7/7/2
f 5/5/2 7/7/2 8/8/2
f 9/9/3 10/10/3 11/3/3
f 9/9/3 11/3/3 12/7/3
f 4/4/4 3/3/4 7/7/4
f 4/4/4 7/7/4 6/6/4
f 13/9/5 14/11/5 8/8/5
f 13/9/5 8/8/5 7/7/5
f 15/12/6 16/13/6 17/14/6
f 15/12/6 17/14/6 18/15/6
f 19/16/7 20/17/7 21/18/7
f 19/16/7 21/18/7 22/19/7
f 23/20/8 24/21/8 25/22/8
f 23/20/8 25/22/8 26/23/8
f 27/18/7 28/17/7 29/16/7
f 27/18/7 29/16/7 30/19/7
f 31/22/8 32/21/8 33/20/8
f 31/22/8 33/20/8 34/23/8
f 35/24/9 36/25/9 37/26/9
f 35/24/9 37/26/9 38/27/9
f 39/28/10 40/29/10 41/30/10
f 39/28/10 41/30/10 42/31/10
f 43/32/11 44/33/11 45/26/11
f 43/32/11 45/26/11 46/30/11
f 38/27/4 37/26/4 41/30/4
f 38/27/4 41/30/4 40/29/4
f 47/32/12 48/34/12 42/31/12
f 47/32/12 42/31/12 41/30/12
f 49/35/6 50/36/6 51/37/6
f 49/35/6 51/37/6 42/31/6
f 52/38/13 53/39/13 54/40/13
f 52/38/13 54/40/13 55/41/13
f 56/42/14 57/43/14 58/44/14
f 56/42/14 58/44/14 59/45/14
f 60/46/15 61/47/15 62/48/15
f 60/46/15 62/48/15 63/44/15
f 55/41/4 54/40/4 58/44/4
f 55/41/4 58/44/4 57/43/4
f 64/46/16 65/49/16 59/45/16
f 64/46/16 59/45/16 58/44/16
f 66/50/6 67/51/6 56/42/6
f 66/50/6 56/42/6 59/45/6
f 68/38/13 69/41/13 70/40/13
f 68/38/13 70/40/13 71/39/13
f 72/42/14 73/45/14 74/44/14
f 72/42/14 74/44/14 75/43/14
f 76/46/17 77/44/17 78/48/17
f 76/46/17 78/48/17 79/47/17
f 69/41/6 75/43/6 74/44/6
f 69/41/6 74/44/6 70/40/6
f 80/46/16 74/44/16 73/45/16
f 80/46/16 73/45/16 81/49/16
f 82/50/4 73/45/4 72/42/4
f 82/50/4 72/42/4 83/51/4
f 84/52/1 85/53/1 86/54/1
f 84/52/1 86/54/1 87/55/1
# Vertices: 87, normals: 17, texture coordinates: 55, faces: 58

